HIERARCHY
ROOT Hips
{
	OFFSET 0.000000 100.481300 0.000000
	CHANNELS 6 Xposition Yposition Zposition Xrotation Yrotation Zrotation
	JOINT Spine
	{
		OFFSET -0.279200 12.230698 -2.892100
		CHANNELS 3 Xrotation Yrotation Zrotation
		JOINT Spine1
		{
			OFFSET -0.325700 14.269203 -3.374200
			CHANNELS 3 Xrotation Yrotation Zrotation
			JOINT Spine2
			{
				OFFSET -0.372300 16.307602 -0.352600
				CHANNELS 3 Xrotation Yrotation Zrotation
				JOINT Neck
				{
					OFFSET -0.418800 17.814194 8.416900
					CHANNELS 3 Xrotation Yrotation Zrotation
					JOINT Head
					{
						OFFSET 0.000000 7.031097 3.806800
						CHANNELS 3 Xrotation Yrotation Zrotation
						JOINT HeadTop_End
						{
							OFFSET 0.000000 24.646606 12.978600
							CHANNELS 3 Xrotation Yrotation Zrotation
							End Site
							{
								OFFSET 0.000000 27.854965 0.000000
							}
						}
					}
				}
				JOINT LeftShoulder
				{
					OFFSET 16.952999 14.495407 -7.737500
					CHANNELS 3 Xrotation Yrotation Zrotation
					JOINT LeftArm
					{
						OFFSET 9.308998 -2.777710 0.208600
						CHANNELS 3 Xrotation Yrotation Zrotation
						JOINT LeftForeArm
						{
							OFFSET 29.972298 0.000000 0.000000
							CHANNELS 3 Xrotation Yrotation Zrotation
							JOINT LeftHand
							{
								OFFSET 26.026505 0.000000 0.000000
								CHANNELS 3 Xrotation Yrotation Zrotation
								JOINT LeftHandThumb1
								{
									OFFSET 12.240501 -7.147949 9.207150
									CHANNELS 3 Xrotation Yrotation Zrotation
									JOINT LeftHandThumb2
									{
										OFFSET 4.138618 -2.389435 2.389433
										CHANNELS 3 Xrotation Yrotation Zrotation
										JOINT LeftHandThumb3
										{
											OFFSET 2.726913 -1.574387 1.574386
											CHANNELS 3 Xrotation Yrotation Zrotation
											JOINT LeftHandThumb4
											{
												OFFSET 3.941010 -2.275345 2.275342
												CHANNELS 3 Xrotation Yrotation Zrotation
												End Site
												{
													OFFSET -0.005798 5.087799 0.009903
												}
											}
										}
									}
								}
								JOINT LeftHandIndex1
								{
									OFFSET 24.424698 -1.985611 5.953459
									CHANNELS 3 Xrotation Yrotation Zrotation
									JOINT LeftHandIndex2
									{
										OFFSET 6.426697 0.000000 0.000000
										CHANNELS 3 Xrotation Yrotation Zrotation
										JOINT LeftHandIndex3
										{
											OFFSET 5.337898 0.000000 0.000000
											CHANNELS 3 Xrotation Yrotation Zrotation
											JOINT LeftHandIndex4
											{
												OFFSET 4.409401 0.000000 0.000000
												CHANNELS 3 Xrotation Yrotation Zrotation
												End Site
												{
													OFFSET 0.000000 4.409363 0.014373
												}
											}
										}
									}
								}
								JOINT LeftHandMiddle1
								{
									OFFSET 23.810104 0.000000 0.000000
									CHANNELS 3 Xrotation Yrotation Zrotation
									JOINT LeftHandMiddle2
									{
										OFFSET 7.176498 0.000000 0.000000
										CHANNELS 3 Xrotation Yrotation Zrotation
										JOINT LeftHandMiddle3
										{
											OFFSET 6.774902 0.000000 0.000000
											CHANNELS 3 Xrotation Yrotation Zrotation
											JOINT LeftHandMiddle4
											{
												OFFSET 5.403328 0.000000 0.000000
												CHANNELS 3 Xrotation Yrotation Zrotation
												End Site
												{
													OFFSET -0.027702 5.403244 0.017414
												}
											}
										}
									}
								}
								JOINT LeftHandRing1
								{
									OFFSET 22.908401 -0.839279 -6.020567
									CHANNELS 3 Xrotation Yrotation Zrotation
									JOINT LeftHandRing2
									{
										OFFSET 6.337502 0.000000 0.000000
										CHANNELS 3 Xrotation Yrotation Zrotation
										JOINT LeftHandRing3
										{
											OFFSET 5.779297 0.000000 0.000000
											CHANNELS 3 Xrotation Yrotation Zrotation
											JOINT LeftHandRing4
											{
												OFFSET 4.965698 0.000000 0.000000
												CHANNELS 3 Xrotation Yrotation Zrotation
												End Site
												{
													OFFSET 0.000000 4.965668 0.016186
												}
											}
										}
									}
								}
								JOINT LeftHandPinky1
								{
									OFFSET 20.037003 -1.530319 -10.950146
									CHANNELS 3 Xrotation Yrotation Zrotation
									JOINT LeftHandPinky2
									{
										OFFSET 5.254700 0.000000 0.000000
										CHANNELS 3 Xrotation Yrotation Zrotation
										JOINT LeftHandPinky3
										{
											OFFSET 4.810204 0.000000 0.000000
											CHANNELS 3 Xrotation Yrotation Zrotation
											JOINT LeftHandPinky4
											{
												OFFSET 3.647202 0.000000 0.000000
												CHANNELS 3 Xrotation Yrotation Zrotation
												End Site
												{
													OFFSET 0.000000 3.647186 0.011889
												}
											}
										}
									}
								}
							}
						}
					}
				}
				JOINT RightShoulder
				{
					OFFSET -15.141001 14.495407 -7.737500
					CHANNELS 3 Xrotation Yrotation Zrotation
					JOINT RightArm
					{
						OFFSET -9.308998 -2.777710 0.208500
						CHANNELS 3 Xrotation Yrotation Zrotation
						JOINT RightForeArm
						{
							OFFSET -29.972300 0.000000 0.000000
							CHANNELS 3 Xrotation Yrotation Zrotation
							JOINT RightHand
							{
								OFFSET -26.026505 0.000000 0.000000
								CHANNELS 3 Xrotation Yrotation Zrotation
								JOINT RightHandThumb1
								{
									OFFSET -12.240601 -7.148026 9.207092
									CHANNELS 3 Xrotation Yrotation Zrotation
									JOINT RightHandThumb2
									{
										OFFSET -4.138618 -2.389435 2.389433
										CHANNELS 3 Xrotation Yrotation Zrotation
										JOINT RightHandThumb3
										{
											OFFSET -2.726974 -1.574417 1.574421
											CHANNELS 3 Xrotation Yrotation Zrotation
											JOINT RightHandThumb4
											{
												OFFSET -3.941010 -2.275345 2.275343
												CHANNELS 3 Xrotation Yrotation Zrotation
												End Site
												{
													OFFSET 0.005814 5.087799 0.009927
												}
											}
										}
									}
								}
								JOINT RightHandIndex1
								{
									OFFSET -24.424698 -1.985657 5.953444
									CHANNELS 3 Xrotation Yrotation Zrotation
									JOINT RightHandIndex2
									{
										OFFSET -6.426697 0.000000 0.000000
										CHANNELS 3 Xrotation Yrotation Zrotation
										JOINT RightHandIndex3
										{
											OFFSET -5.337898 0.000000 0.000000
											CHANNELS 3 Xrotation Yrotation Zrotation
											JOINT RightHandIndex4
											{
												OFFSET -4.409401 0.000000 0.000000
												CHANNELS 3 Xrotation Yrotation Zrotation
												End Site
												{
													OFFSET 0.000000 4.409363 0.014408
												}
											}
										}
									}
								}
								JOINT RightHandMiddle1
								{
									OFFSET -23.810097 0.000000 0.000000
									CHANNELS 3 Xrotation Yrotation Zrotation
									JOINT RightHandMiddle2
									{
										OFFSET -7.176498 0.000000 0.000000
										CHANNELS 3 Xrotation Yrotation Zrotation
										JOINT RightHandMiddle3
										{
											OFFSET -6.774902 0.000000 0.000000
											CHANNELS 3 Xrotation Yrotation Zrotation
											JOINT RightHandMiddle4
											{
												OFFSET -5.403328 0.000000 0.000000
												CHANNELS 3 Xrotation Yrotation Zrotation
												End Site
												{
													OFFSET 0.027702 5.403244 0.017457
												}
											}
										}
									}
								}
								JOINT RightHandRing1
								{
									OFFSET -22.908302 -0.839325 -6.020576
									CHANNELS 3 Xrotation Yrotation Zrotation
									JOINT RightHandRing2
									{
										OFFSET -6.337502 0.000000 0.000000
										CHANNELS 3 Xrotation Yrotation Zrotation
										JOINT RightHandRing3
										{
											OFFSET -5.779297 0.000000 0.000000
											CHANNELS 3 Xrotation Yrotation Zrotation
											JOINT RightHandRing4
											{
												OFFSET -4.965698 0.000000 0.000000
												CHANNELS 3 Xrotation Yrotation Zrotation
												End Site
												{
													OFFSET 0.000000 4.965668 0.016226
												}
											}
										}
									}
								}
								JOINT RightHandPinky1
								{
									OFFSET -20.037003 -1.530334 -10.950259
									CHANNELS 3 Xrotation Yrotation Zrotation
									JOINT RightHandPinky2
									{
										OFFSET -5.254700 0.000000 0.000000
										CHANNELS 3 Xrotation Yrotation Zrotation
										JOINT RightHandPinky3
										{
											OFFSET -4.810204 0.000000 0.000000
											CHANNELS 3 Xrotation Yrotation Zrotation
											JOINT RightHandPinky4
											{
												OFFSET -3.647202 0.000000 0.000000
												CHANNELS 3 Xrotation Yrotation Zrotation
												End Site
												{
													OFFSET 0.000000 3.647186 0.011917
												}
											}
										}
									}
								}
							}
						}
					}
				}
			}
		}
	}
	JOINT LeftUpLeg
	{
		OFFSET 15.427100 -6.655098 0.678600
		CHANNELS 3 Xrotation Yrotation Zrotation
		JOINT LeftLeg
		{
			OFFSET 4.081073 -39.591068 13.024000
			CHANNELS 3 Xrotation Yrotation Zrotation
			JOINT LeftFoot
			{
				OFFSET -4.081074 -37.707932 -15.979700
				CHANNELS 3 Xrotation Yrotation Zrotation
				JOINT LeftToeBase
				{
					OFFSET 5.346399 -15.068900 20.645000
					CHANNELS 3 Xrotation Yrotation Zrotation
					JOINT LeftToe_End
					{
						OFFSET 2.754700 0.931300 11.300900
						CHANNELS 3 Xrotation Yrotation Zrotation
						End Site
						{
							OFFSET 0.000000 11.669021 0.000000
						}
					}
				}
			}
		}
	}
	JOINT RightUpLeg
	{
		OFFSET -15.569500 -6.655098 0.678600
		CHANNELS 3 Xrotation Yrotation Zrotation
		JOINT RightLeg
		{
			OFFSET -4.081825 -39.591045 13.023800
			CHANNELS 3 Xrotation Yrotation Zrotation
			JOINT RightFoot
			{
				OFFSET 4.081824 -37.707954 -15.979600
				CHANNELS 3 Xrotation Yrotation Zrotation
				JOINT RightToeBase
				{
					OFFSET -5.346400 -15.068900 20.645000
					CHANNELS 3 Xrotation Yrotation Zrotation
					JOINT RightToe_End
					{
						OFFSET -2.754700 0.931300 11.300900
						CHANNELS 3 Xrotation Yrotation Zrotation
						End Site
						{
							OFFSET 0.000000 11.669021 0.000000
						}
					}
				}
			}
		}
	}
}
MOTION
Frames: 5
Frame Time: 0.033333
2.031192 77.904060 2.631260 -12.282521 0.507767 -1.814822 8.816725 -3.618588 6.153615 2.989040 -2.073740 0.908918 2.986960 -2.052534 0.958867 13.279902 0.153852 0.923011 4.646891 1.564703 0.245624 0.000001 0.000000 0.000001 -0.363743 9.074138 -0.980331 3.743298 9.936669 -56.774394 0.000051 -104.228400 0.000043 50.934029 30.197537 -8.324764 6.104239 12.119736 4.834978 8.503270 16.435225 -5.339646 0.567295 5.191925 1.845525 -0.000000 0.000002 0.000000 1.297602 4.036894 -33.536943 3.890304 6.200026 -64.183124 3.890060 6.199912 -64.180965 -0.000002 0.000000 -0.000002 1.118619 3.787121 -36.428763 6.188823 6.846442 -84.211376 6.186531 6.846208 -84.192218 0.000000 0.000001 0.000001 0.329367 2.171866 -22.616609 11.502558 5.103970 -132.258759 7.106255 6.877530 -91.878837 0.000000 -0.000000 -0.000001 5.736515 7.933657 -50.736558 7.118874 2.790855 -91.985190 6.969883 6.880628 -90.740279 0.000001 0.000002 -0.000002 0.801629 -12.975142 11.177739 -19.002375 0.261649 34.336689 0.000005 61.609918 -0.000005 38.216305 2.194775 -15.507557 -5.152591 -10.221094 2.260591 18.231710 -26.119350 4.270189 -4.430782 9.049489 -1.897584 0.000000 -0.000000 0.000000 3.701008 -6.147729 63.277960 6.052453 -6.890537 82.574774 6.052425 -6.890528 82.574405 0.000002 -0.000001 -0.000001 3.236088 -5.877947 58.168644 5.570226 -6.810871 78.533604 5.593203 -6.698174 78.535967 0.000001 0.000000 0.000000 3.093030 -5.787304 54.887632 5.600149 -6.816838 78.785863 5.618710 -6.723473 78.787414 0.000000 0.000001 -0.000001 3.413372 -5.986566 58.503692 6.273656 -6.915574 84.414998 6.273641 -6.915563 84.414848 0.000001 0.000001 0.000002 -37.481285 2.883864 11.241857 79.234900 10.624874 -0.166669 21.295333 8.361022 7.777964 -12.270878 4.083367 -25.085430 0.000003 -0.000001 -0.000002 -13.776180 -13.486699 8.585915 53.509560 2.501406 -3.571421 -30.254203 -21.767584 -10.443801 -1.575459 -0.000002 0.000001 0.000000 0.000000 -0.000000 
2.044495 77.718857 5.407728 -14.185875 0.443604 -1.216253 9.366628 -3.271620 5.572372 3.195768 -2.061411 0.781513 3.195281 -2.038387 0.833624 13.612177 0.175132 0.798805 4.559529 1.564605 0.256745 -0.000000 0.000000 0.000000 -0.336684 9.032266 -1.205994 3.528091 10.963254 -56.072687 -0.000007 -107.548862 -0.000009 52.517745 31.569992 -10.494708 6.772632 12.640774 4.090989 8.786717 17.299776 -5.556507 0.654693 5.452029 1.794244 -0.000000 -0.000001 0.000000 1.325999 4.085373 -33.013784 4.053792 6.276025 -65.687609 4.053400 6.275866 -65.684167 0.000000 0.000001 -0.000001 0.993252 3.601969 -35.472017 6.397072 6.864229 -85.955895 6.394436 6.864042 -85.933834 -0.000000 -0.000002 -0.000001 0.267179 1.999164 -21.842757 11.674912 4.942504 -134.226960 7.351030 6.865200 -93.924561 0.000000 -0.000000 0.000001 5.563244 7.886688 -49.696965 7.214004 2.786895 -92.777929 7.059610 6.878895 -91.489216 0.000001 0.000000 0.000000 0.766707 -12.712404 10.966800 -18.751122 0.034002 33.666412 -0.000010 64.553115 0.000015 38.264294 1.801317 -15.131637 -4.892200 -10.505517 2.340864 18.486482 -26.601881 4.384550 -4.431268 9.050323 -1.897200 -0.000000 0.000000 0.000000 3.676352 -6.136603 63.606335 6.222102 -6.910372 83.986649 6.221951 -6.910341 83.985420 0.000002 -0.000004 -0.000002 3.317419 -5.928128 58.239835 5.723045 -6.839894 79.819489 5.772478 -6.565645 79.824113 -0.000001 0.000000 -0.000001 3.187653 -5.851973 55.156663 5.746126 -6.843972 80.013105 5.781926 -6.640872 80.015769 0.000001 0.000001 -0.000001 3.486420 -6.029988 58.814827 6.386168 -6.925568 85.348664 6.386093 -6.925558 85.348193 0.000002 0.000004 0.000001 -44.500438 2.178648 11.345404 80.569929 10.595588 -0.369438 22.301199 7.722244 7.097710 -8.349638 0.891336 -10.865919 -0.000001 -0.000001 -0.000000 -9.056757 -12.943995 8.170226 53.862179 4.089553 -3.053706 -33.781211 -23.128170 -11.582160 -1.932920 0.000002 0.000004 0.000000 0.000000 0.000000 
2.039142 77.719765 8.178164 -16.189684 0.421776 -0.520743 10.059843 -2.946875 4.847242 3.446638 -2.076633 0.574096 3.447338 -2.054763 0.629812 13.988301 0.182616 0.659643 4.507030 1.425132 0.398910 0.000000 -0.000000 -0.000001 -0.298874 8.953510 -1.513338 3.009129 11.927720 -55.270874 -0.000058 -111.472205 -0.000038 54.716174 32.927253 -12.848840 7.351011 13.151184 3.786556 9.156050 18.371628 -5.831379 0.755552 5.749899 1.735237 -0.000000 -0.000001 0.000000 1.314288 4.068047 -32.960522 4.249513 6.360322 -67.465897 4.249160 6.360159 -67.462830 -0.000002 0.000004 0.000000 0.897297 3.460245 -35.101063 6.632180 6.876690 -87.921091 6.629180 6.876605 -87.896099 -0.000001 0.000001 -0.000001 0.243017 1.932583 -21.647096 11.866131 4.749548 -136.490061 7.633840 6.840084 -96.294425 0.000003 0.000000 0.000000 5.504414 7.865378 -49.390320 7.309126 2.781619 -93.571023 7.153490 6.875825 -92.273431 0.000001 -0.000002 -0.000002 0.741387 -12.534656 10.812481 -17.900515 -0.561161 32.674266 0.000080 68.602625 -0.000080 38.144257 1.185485 -14.595243 -4.610225 -10.811078 2.236471 18.834793 -27.255023 4.552130 -4.408378 8.982641 -1.898043 -0.000001 0.000002 -0.000000 3.638933 -6.121840 64.264608 6.469264 -6.931791 86.037639 6.468888 -6.931760 86.034361 0.000002 -0.000002 -0.000000 3.445135 -6.005961 58.487729 5.961527 -6.878141 81.816097 6.037977 -6.347093 81.821671 0.000000 -0.000003 0.000001 3.300146 -5.927218 55.499945 5.968986 -6.879210 81.878341 6.015718 -6.551517 81.881059 -0.000002 -0.000001 -0.000002 3.620624 -6.108534 59.199012 6.554934 -6.937159 86.747029 6.554781 -6.937128 86.745943 0.000002 0.000001 0.000001 -51.470072 1.660248 11.226841 81.664337 10.722687 -0.605884 24.490237 7.777361 6.542601 -3.610446 -0.000001 0.000006 -0.000003 0.000001 -0.000001 -4.219447 -12.438265 7.670897 53.904287 5.507017 -2.600597 -36.641202 -24.214182 -12.718563 -2.502608 0.000030 0.000003 -0.000000 -0.000001 0.000000 
2.069917 77.901245 10.912205 -18.237093 0.264923 0.234473 10.820159 -2.592532 3.997510 3.723522 -2.092531 0.290686 3.725101 -2.075439 0.350351 14.432582 0.195344 0.516511 4.663272 1.272862 0.633165 0.000002 -0.000001 -0.000000 -0.264981 8.862233 -1.783041 2.381232 12.698870 -54.485341 0.000026 -115.556392 0.000035 56.918965 33.991212 -15.104683 7.659328 13.522666 4.037925 9.472578 19.253537 -6.063571 0.831285 5.971931 1.691054 -0.000000 0.000003 -0.000002 1.222523 3.924833 -33.343693 4.433159 6.432975 -69.114274 4.433009 6.432915 -69.112997 -0.000000 0.000002 0.000001 0.837293 3.379488 -35.307980 6.839380 6.881077 -89.651007 6.836057 6.881057 -89.623126 -0.000001 0.000001 0.000004 0.260310 1.986681 -22.000743 12.025442 4.576456 -138.449533 7.885505 6.807848 -98.412186 -0.000003 -0.000001 0.000002 5.613017 7.912258 -49.870042 7.373311 2.777324 -94.106503 7.218136 6.872961 -92.813453 0.000000 -0.000001 0.000000 0.728582 -12.410662 10.743024 -16.595019 -1.492576 31.407624 0.000104 73.311139 -0.000108 37.878378 0.395344 -14.226580 -4.372755 -11.074050 1.837481 19.282126 -28.080719 4.775208 -4.366691 8.859954 -1.899816 0.000000 0.000001 0.000000 3.601886 -6.112943 65.329667 6.761405 -6.945734 88.455417 6.760587 -6.945700 88.448641 0.000000 -0.000005 -0.000003 3.622704 -6.110489 59.065796 6.241756 -6.912396 84.149870 6.328292 -6.064916 84.152917 0.000003 -0.000001 0.000002 3.419616 -6.003925 56.018036 6.226259 -6.910816 84.021244 6.270301 -6.488876 84.022638 0.000003 -0.000003 -0.000001 3.787651 -6.203325 59.687432 6.755888 -6.945586 88.409750 6.755660 -6.945559 88.407913 0.000000 0.000002 0.000002 -57.977166 1.286237 11.331462 82.373611 10.876934 -1.021803 28.190033 7.172344 5.570942 -3.405382 -0.000012 -0.000000 0.000002 0.000000 0.000001 0.904819 -12.003246 7.138346 53.295546 6.639773 -2.246669 -39.317212 -24.594135 -14.313589 -3.219295 0.000008 -0.000001 -0.000000 -0.000000 -0.000000 
2.136301 78.264412 13.552715 -20.212604 -0.164313 0.985890 11.501531 -2.198913 3.073008 3.979927 -2.097592 -0.034121 3.982330 -2.087908 0.028788 14.933310 0.231050 0.384783 5.139407 1.247860 0.884441 0.000002 0.000000 0.000000 -0.249469 8.835661 -1.915500 1.937005 13.287659 -53.841384 -0.000002 -119.097544 -0.000001 58.405501 34.568462 -16.785564 7.756456 13.735349 4.471608 9.635680 19.694840 -6.182099 0.856967 6.046919 1.676086 -0.000000 -0.000001 -0.000001 1.034792 3.642944 -33.771153 4.556406 6.478363 -70.210294 4.556280 6.478318 -70.209283 0.000001 -0.000001 -0.000001 0.766670 3.286726 -35.572284 6.978279 6.880517 -90.810220 6.974379 6.880559 -90.777756 -0.000002 -0.000000 -0.000003 0.303321 2.104288 -22.430297 12.118375 4.469732 -139.628096 8.050496 6.781583 -99.806788 0.000003 -0.000001 0.000001 5.850741 8.039466 -50.593991 7.389953 2.776113 -94.245450 7.235753 6.872095 -92.960493 0.000002 0.000001 -0.000001 0.722565 -12.271515 10.726833 -15.197287 -2.533614 30.117914 0.000146 77.866144 -0.000142 37.509678 -0.404400 -14.312573 -4.202370 -11.274668 1.275742 19.767894 -28.958547 5.021482 -4.329856 8.751738 -1.901357 0.000000 0.000002 -0.000002 3.557132 -6.106235 66.506057 7.017560 -6.947890 90.573001 7.016177 -6.947895 90.561676 -0.000000 0.000002 -0.000004 3.813235 -6.216973 59.836460 6.477374 -6.932341 86.104732 6.554985 -5.781003 86.102212 -0.000001 0.000001 -0.000001 3.528840 -6.070697 56.619461 6.441258 -6.929802 85.805467 6.474954 -6.466659 85.805078 0.000000 0.000000 -0.000002 3.933277 -6.282563 60.194758 6.934613 -6.948223 89.887366 6.934342 -6.948215 89.885119 -0.000002 0.000001 -0.000002 -63.640663 1.025955 11.835318 82.600688 11.037330 -1.594950 32.800672 5.741441 4.199700 -3.365447 0.000006 -0.000003 -0.000004 -0.000001 -0.000000 5.974926 -11.643112 6.441712 52.169285 8.044276 -1.855753 -41.529227 -24.814919 -16.090514 -3.997824 0.000007 0.000002 -0.000000 0.000001 -0.000000 
